<?xml version="1.0" standalone="no"?>
<!DOCTYPE svg PUBLIC "-//W3C//DTD SVG 20010904//EN"
 "http://www.w3.org/TR/2001/REC-SVG-20010904/DTD/svg10.dtd">
<svg version="1.0" xmlns="http://www.w3.org/2000/svg"
 width="320.000000pt" height="320.000000pt" viewBox="0 0 320.000000 320.000000"
 preserveAspectRatio="xMidYMid meet">

<g transform="translate(0.000000,320.000000) scale(0.100000,-0.100000)"
fill="#010004" stroke="none">
<path d="M1416 3130 c-242 -30 -482 -122 -691 -263 -118 -80 -312 -274 -392
-392 -118 -176 -199 -366 -245 -578 -32 -148 -32 -446 0 -594 68 -317 202
-564 427 -788 224 -225 471 -359 788 -427 148 -32 446 -32 594 0 317 68 564
202 788 427 225 224 359 471 427 788 32 148 32 446 0 594 -68 317 -202 564
-427 788 -225 226 -477 362 -788 426 -115 23 -366 34 -481 19z m1075 -758 c43
-22 59 -38 81 -81 l28 -53 0 -638 0 -638 -28 -53 c-22 -43 -38 -59 -81 -81
l-53 -28 -837 0 -837 0 -50 25 c-54 27 -84 60 -102 114 -17 48 -17 1274 0
1322 18 54 48 87 102 114 l50 25 837 0 837 0 53 -28z"/>
<path d="M800 1600 l0 -600 100 0 100 0 2 439 3 438 298 -189 297 -188 298
188 297 189 3 -438 2 -439 100 0 100 0 0 600 0 600 -60 0 -60 0 -340 -210
-340 -210 -340 210 -340 210 -60 0 -60 0 0 -600z"/>
</g>
</svg>
