<?xml version="1.0" standalone="no"?>
<!DOCTYPE svg PUBLIC "-//W3C//DTD SVG 20010904//EN"
 "http://www.w3.org/TR/2001/REC-SVG-20010904/DTD/svg10.dtd">
<svg version="1.0" xmlns="http://www.w3.org/2000/svg"
 width="797.000000pt" height="796.000000pt" viewBox="0 0 797.000000 796.000000"
 preserveAspectRatio="xMidYMid meet">

<g transform="translate(0.000000,796.000000) scale(0.100000,-0.100000)"
fill="#010004" stroke="none">
<path d="M3570 7949 c-631 -65 -1259 -292 -1802 -653 -900 -598 -1527 -1565
-1713 -2641 -79 -457 -72 -1006 19 -1450 170 -834 577 -1568 1176 -2123 308
-285 567 -468 915 -648 399 -206 831 -341 1310 -410 147 -21 695 -30 865 -15
1311 120 2455 854 3115 2001 247 429 404 891 487 1430 29 192 37 718 14 937
-68 643 -263 1207 -605 1748 -162 257 -340 474 -582 710 -647 631 -1437 1005
-2344 1110 -144 17 -704 19 -855 4z m-1277 -1839 c454 -143 435 -136 484 -186
55 -57 67 -103 89 -334 9 -102 20 -189 25 -194 8 -9 101 -20 2089 -241 619
-69 1144 -130 1167 -136 90 -24 167 -110 179 -200 8 -59 -197 -1213 -225
-1268 -26 -50 -91 -107 -138 -120 -26 -8 -496 -11 -1485 -11 -797 0 -1448 -1
-1448 -2 0 -2 -11 -66 -25 -142 -14 -77 -25 -148 -25 -158 0 -17 57 -18 1379
-18 1500 0 1421 3 1497 -55 17 -13 44 -48 58 -77 68 -136 -2 -298 -146 -337
-32 -9 -428 -11 -1599 -9 l-1556 3 -48 30 c-59 37 -110 109 -119 167 -5 32 11
138 60 408 l67 365 -22 220 c-11 121 -43 441 -71 710 -27 270 -61 607 -75 750
-14 143 -30 269 -34 280 -7 16 -63 38 -272 105 -319 101 -320 102 -368 145
-106 96 -104 259 5 355 100 87 127 85 557 -50z m918 -3661 c291 -136 292 -546
1 -682 -58 -27 -78 -31 -152 -31 -102 0 -165 19 -234 72 -104 78 -152 187
-144 326 4 65 11 93 35 141 27 52 80 113 134 153 77 58 259 68 360 21z m2201
-1 c116 -54 188 -149 210 -276 30 -174 -51 -331 -209 -405 -58 -27 -79 -31
-153 -31 -113 -1 -175 22 -252 92 -80 75 -111 141 -116 252 -7 145 40 254 142
331 71 54 124 69 231 66 73 -2 101 -7 147 -29z"/>
</g>
</svg>
