<?xml version="1.0" standalone="no"?>
<!DOCTYPE svg PUBLIC "-//W3C//DTD SVG 20010904//EN"
 "http://www.w3.org/TR/2001/REC-SVG-20010904/DTD/svg10.dtd">
<svg version="1.0" xmlns="http://www.w3.org/2000/svg"
 width="512.000000pt" height="512.000000pt" viewBox="0 0 512.000000 512.000000"
 preserveAspectRatio="xMidYMid meet">

<g transform="translate(0.000000,512.000000) scale(0.100000,-0.100000)"
fill="#FE0000" stroke="none">
<path d="M1950 4124 c-486 -12 -904 -40 -1080 -74 -199 -38 -337 -137 -421
-303 -84 -165 -131 -595 -131 -1187 0 -592 47 -1022 131 -1187 55 -110 144
-198 256 -253 180 -89 699 -124 1855 -124 1130 0 1662 34 1845 118 110 51 211
148 266 258 84 166 131 596 131 1188 0 592 -47 1022 -131 1188 -55 110 -156
207 -266 258 -107 49 -366 82 -820 104 -208 10 -1376 20 -1635 14z m751 -1226
c318 -183 578 -335 578 -338 0 -6 -1152 -670 -1162 -670 -4 0 -7 302 -7 670 0
369 3 670 7 670 3 0 266 -150 584 -332z"/>
</g>
</svg>
