<?xml version="1.0" standalone="no"?>
<!DOCTYPE svg PUBLIC "-//W3C//DTD SVG 20010904//EN"
 "http://www.w3.org/TR/2001/REC-SVG-20010904/DTD/svg10.dtd">
<svg version="1.0" xmlns="http://www.w3.org/2000/svg"
 width="512.000000pt" height="512.000000pt" viewBox="0 0 512.000000 512.000000"
 preserveAspectRatio="xMidYMid meet">

<g transform="translate(0.000000,512.000000) scale(0.100000,-0.100000)"
fill="#000000" stroke="none">
<path d="M0 2560 l0 -2560 2560 0 2560 0 0 2560 0 2560 -2560 0 -2560 0 0
-2560z m2809 1793 c349 -45 675 -191 961 -431 228 -191 425 -472 534 -765 151
-405 149 -903 -6 -1308 -166 -435 -524 -825 -934 -1015 -209 -97 -282 -110
-324 -56 -19 23 -20 42 -20 336 0 379 -12 445 -95 545 -31 36 -33 35 85 51
287 39 529 194 629 401 23 48 53 131 68 185 24 90 27 117 27 284 1 178 0 188
-27 265 -30 85 -69 154 -123 221 l-33 41 16 44 c25 68 29 213 8 304 -24 109
-41 145 -68 146 -100 5 -270 -58 -426 -158 l-55 -35 -95 21 c-253 56 -509 54
-766 -5 l-70 -16 -83 51 c-137 82 -332 152 -403 143 -23 -3 -29 -12 -48 -75
-40 -128 -43 -283 -7 -385 13 -36 13 -42 -1 -54 -32 -26 -112 -160 -132 -221
-34 -104 -42 -155 -42 -279 1 -416 158 -678 492 -816 62 -26 152 -47 327 -79
23 -4 23 -4 -8 -40 -37 -41 -67 -107 -76 -164 -8 -46 -13 -51 -83 -74 -82 -27
-223 -26 -283 2 -63 29 -132 95 -180 170 -74 117 -194 197 -295 197 -98 0 -95
-45 6 -114 73 -49 147 -149 187 -252 50 -126 138 -200 276 -233 68 -16 246
-19 316 -6 l42 8 0 -191 c0 -207 -4 -227 -56 -247 -79 -29 -413 127 -625 293
-112 88 -289 272 -369 385 -228 322 -336 649 -345 1033 -4 178 5 280 36 434
61 300 214 607 423 848 298 343 772 583 1226 621 95 8 320 3 419 -10z"/>
</g>
</svg>
