<?xml version="1.0" standalone="no"?>
<!DOCTYPE svg PUBLIC "-//W3C//DTD SVG 20010904//EN"
 "http://www.w3.org/TR/2001/REC-SVG-20010904/DTD/svg10.dtd">
<svg version="1.0" xmlns="http://www.w3.org/2000/svg"
 width="800.000000pt" height="584.000000pt" viewBox="0 0 800.000000 584.000000"
 preserveAspectRatio="xMidYMid meet">

<g transform="translate(0.000000,584.000000) scale(0.100000,-0.100000)"
fill="#000000" stroke="none">
<path d="M0 2920 l0 -2920 4000 0 4000 0 0 2920 0 2920 -4000 0 -4000 0 0
-2920z m2965 1521 c317 -148 278 -599 -59 -696 -165 -48 -353 40 -433 203 -25
51 -28 68 -28 157 0 89 3 106 28 157 49 99 149 181 254 208 66 16 168 4 238
-29z m1922 -942 c185 -20 330 -85 428 -191 68 -73 106 -141 144 -253 60 -180
63 -232 68 -977 l5 -678 -325 0 -326 0 -3 623 c-4 594 -5 625 -25 689 -52 171
-152 237 -340 225 -172 -10 -267 -89 -319 -262 -16 -54 -18 -121 -21 -667 l-4
-608 -320 0 -319 0 0 1030 0 1030 305 0 304 0 3 -146 3 -147 33 51 c68 105
204 206 338 251 114 38 222 47 371 30z m-1757 -1069 l0 -1030 -320 0 -320 0 0
1030 0 1030 320 0 320 0 0 -1030z"/>
</g>
</svg>
