<?xml version="1.0" standalone="no"?>
<!DOCTYPE svg PUBLIC "-//W3C//DTD SVG 20010904//EN"
 "http://www.w3.org/TR/2001/REC-SVG-20010904/DTD/svg10.dtd">
<svg version="1.0" xmlns="http://www.w3.org/2000/svg"
 width="1400.000000pt" height="1400.000000pt" viewBox="0 0 1400.000000 1400.000000"
 preserveAspectRatio="xMidYMid meet">

<g transform="translate(0.000000,1400.000000) scale(0.100000,-0.100000)"
fill="#000000" stroke="none">
<path d="M4125 9396 c-162 -39 -286 -170 -316 -331 -6 -31 -9 -72 -7 -91 3
-36 7 -39 248 -186 135 -82 313 -192 395 -243 83 -51 263 -161 400 -245 138
-84 347 -213 465 -285 118 -73 357 -219 530 -325 173 -106 502 -308 730 -448
228 -141 422 -256 430 -256 8 0 260 150 560 334 300 183 624 382 720 440 96
59 438 268 760 465 928 568 939 575 1054 644 l109 65 -6 76 c-12 174 -113 311
-280 378 -39 16 -243 17 -2892 19 -2217 1 -2861 -1 -2900 -11z"/>
<path d="M3800 6718 c0 -1593 -2 -1537 49 -1636 37 -72 108 -139 189 -179 l76
-38 2885 0 2886 0 67 32 c123 58 211 166 237 291 8 37 11 487 11 1527 0 811
-2 1475 -4 1475 -3 0 -42 -23 -88 -52 -46 -28 -162 -99 -258 -158 -96 -59
-357 -219 -580 -355 -223 -136 -495 -303 -605 -370 -110 -67 -270 -164 -355
-217 -85 -52 -279 -170 -430 -263 -151 -93 -345 -211 -430 -263 -356 -219
-382 -230 -484 -219 -64 8 -109 31 -383 200 -330 203 -598 368 -1193 732 -294
180 -661 405 -815 500 -154 94 -380 233 -502 308 -122 75 -233 143 -247 153
l-26 16 0 -1484z"/>
</g>
</svg>
