<?xml version="1.0" standalone="no"?>
<!DOCTYPE svg PUBLIC "-//W3C//DTD SVG 20010904//EN"
 "http://www.w3.org/TR/2001/REC-SVG-20010904/DTD/svg10.dtd">
<svg version="1.0" xmlns="http://www.w3.org/2000/svg"
 width="1920.000000pt" height="1920.000000pt" viewBox="0 0 1920.000000 1920.000000"
 preserveAspectRatio="xMidYMid meet">

<g transform="translate(0.000000,1920.000000) scale(0.100000,-0.100000)"
fill="#000000" stroke="none">
<path d="M8025 14380 c-157 -24 -248 -188 -179 -322 24 -46 84 -96 133 -112
31 -9 116 -16 256 -21 821 -24 1589 -200 2335 -537 471 -212 927 -500 1355
-854 164 -136 568 -540 705 -704 428 -517 762 -1096 975 -1696 189 -531 293
-1083 311 -1648 3 -105 10 -208 16 -230 6 -24 26 -55 56 -85 56 -56 113 -75
202 -69 71 5 127 39 175 107 29 41 30 48 33 164 4 135 -11 402 -34 602 -128
1123 -567 2167 -1288 3060 -268 332 -629 688 -981 966 -840 665 -1877 1121
-2945 1294 -377 61 -981 106 -1125 85z"/>
<path d="M6260 13680 c-88 -11 -170 -40 -309 -110 -631 -318 -1030 -945 -1137
-1790 -36 -287 2 -649 113 -1080 142 -550 466 -1247 877 -1883 644 -998 1590
-1971 2671 -2747 211 -152 787 -526 985 -639 734 -422 1652 -667 2255 -601
567 62 1003 233 1361 533 269 225 510 570 571 814 23 93 23 347 0 508 -31 214
-70 314 -162 414 -88 94 -159 133 -388 211 -111 37 -461 157 -777 265 -840
287 -858 292 -946 305 -127 18 -254 -8 -372 -76 -24 -14 -172 -155 -330 -313
-158 -158 -308 -303 -333 -324 -75 -60 -152 -90 -245 -95 -97 -5 -127 3 -249
71 -1230 678 -2204 1658 -2736 2752 -60 125 -63 133 -62 205 0 92 26 165 87
247 24 32 181 194 350 361 168 167 313 317 322 334 59 114 77 258 50 401 -17
86 -42 164 -301 907 -70 201 -167 482 -217 625 -96 277 -151 398 -221 483 -95
115 -197 164 -407 196 -96 15 -347 38 -374 35 -6 -1 -40 -5 -76 -9z"/>
<path d="M8670 12915 c-96 -30 -160 -116 -160 -213 0 -91 43 -160 125 -201 43
-21 67 -24 254 -32 967 -41 1824 -412 2491 -1079 351 -350 606 -740 783 -1195
141 -363 208 -688 226 -1099 6 -144 11 -177 28 -211 42 -81 119 -124 219 -125
89 0 158 37 202 110 l34 55 -6 200 c-18 696 -242 1388 -638 1979 -398 591
-929 1056 -1584 1384 -288 144 -664 276 -974 341 -378 80 -881 123 -1000 86z"/>
<path d="M9011 11527 c-50 -19 -106 -71 -130 -120 -72 -149 46 -317 225 -317
323 0 703 -108 972 -274 245 -152 431 -331 579 -558 164 -250 251 -511 273
-818 13 -174 20 -204 61 -253 104 -126 314 -109 397 32 26 44 27 52 26 176 -5
443 -174 905 -462 1265 -220 274 -474 480 -783 633 -221 109 -457 184 -699
222 -143 22 -414 29 -459 12z"/>
</g>
</svg>
