<?xml version="1.0" standalone="no"?>
<!DOCTYPE svg PUBLIC "-//W3C//DTD SVG 20010904//EN"
 "http://www.w3.org/TR/2001/REC-SVG-20010904/DTD/svg10.dtd">
<svg version="1.0" xmlns="http://www.w3.org/2000/svg"
 width="1920.000000pt" height="1920.000000pt" viewBox="0 0 1920.000000 1920.000000"
 preserveAspectRatio="xMidYMid meet">

<g transform="translate(0.000000,1920.000000) scale(0.100000,-0.100000)"
fill="#000000" stroke="none">
<path d="M3320 16959 c-48 -19 -93 -62 -116 -113 l-24 -51 0 -7196 0 -7195 28
-55 c18 -35 42 -64 70 -84 l44 -30 6276 0 6277 0 45 30 c31 21 54 47 73 84
l27 55 -2 7205 -3 7206 -28 48 c-15 26 -47 60 -69 75 l-42 27 -6265 2 c-4104
1 -6275 -2 -6291 -8z m12230 -7359 l0 -6910 -5950 0 -5950 0 0 6910 0 6910
5950 0 5950 0 0 -6910z"/>
<path d="M6770 15013 c-79 -9 -241 -44 -286 -62 -27 -10 -83 -38 -124 -61
-215 -122 -376 -291 -470 -495 -188 -405 -129 -848 158 -1190 34 -41 62 -76
62 -79 0 -2 -30 -21 -67 -41 -266 -146 -502 -365 -653 -605 -29 -47 -65 -104
-80 -127 -42 -65 -108 -233 -140 -355 -54 -205 -64 -298 -65 -583 0 -287 0
-286 67 -359 66 -71 -66 -66 1706 -66 l1598 0 52 26 c59 29 94 70 117 133 20
57 20 408 1 571 -43 359 -199 708 -439 980 -127 144 -320 296 -480 376 l-88
45 51 56 c181 198 290 479 290 749 0 344 -180 693 -460 891 -92 64 -251 140
-345 163 -135 33 -291 46 -405 33z m306 -494 c298 -97 489 -429 419 -729 -52
-221 -230 -411 -444 -474 -41 -12 -88 -15 -195 -13 -135 3 -144 5 -210 35
-192 90 -302 215 -372 422 -28 85 -26 244 5 335 38 112 76 179 142 249 102
109 231 181 354 197 89 11 232 1 301 -22z m29 -1715 c152 -29 203 -47 381
-136 402 -200 674 -627 701 -1099 l6 -109 -1313 0 -1313 0 7 108 c8 119 46
318 77 402 65 177 229 409 377 532 99 83 116 95 242 163 128 70 176 89 302
121 181 46 353 51 533 18z"/>
<path d="M9775 14754 c-119 -44 -175 -201 -114 -321 29 -55 92 -108 148 -123
26 -7 716 -9 2147 -8 l2109 3 40 22 c86 46 129 118 129 213 0 105 -60 191
-153 219 -28 8 -595 11 -2152 10 -1823 0 -2119 -2 -2154 -15z"/>
<path d="M9785 13228 c-40 -14 -102 -73 -128 -123 -44 -86 -16 -224 59 -281
74 -57 -52 -54 2228 -54 l2101 0 50 24 c163 77 191 267 56 389 -22 19 -57 40
-78 46 -53 15 -4246 14 -4288 -1z"/>
<path d="M9785 11689 c-46 -13 -110 -73 -130 -121 -10 -25 -18 -68 -18 -103 0
-50 6 -69 32 -112 37 -60 82 -97 136 -112 29 -8 643 -11 2126 -11 2266 0 2139
-3 2214 54 71 55 108 161 85 245 -13 50 -77 124 -132 152 -36 19 -87 19 -2160
18 -1197 0 -2136 -5 -2153 -10z"/>
<path d="M5106 9945 c-152 -54 -191 -273 -69 -386 15 -15 42 -34 60 -43 29
-15 408 -16 4505 -16 l4472 0 45 28 c102 63 140 198 86 307 -30 62 -71 98
-130 114 -29 8 -1300 11 -4485 11 -3749 -1 -4451 -3 -4484 -15z"/>
<path d="M5140 8221 c-110 -34 -174 -119 -174 -231 0 -88 27 -138 101 -188
l56 -37 1491 0 1491 0 46 27 c68 40 109 106 110 177 2 79 -1 102 -17 132 -20
40 -98 104 -142 117 -45 14 -2918 16 -2962 3z"/>
<path d="M8730 8221 c-84 -26 -142 -84 -166 -166 -33 -116 12 -212 128 -271
l48 -24 2668 2 2669 3 52 35 c141 95 134 304 -13 395 l-49 30 -2656 2 c-1461
1 -2667 -2 -2681 -6z"/>
<path d="M5140 6481 c-99 -31 -165 -109 -177 -210 -11 -93 70 -211 165 -239
29 -9 303 -12 1044 -12 1133 0 1066 -4 1136 75 64 73 80 170 41 255 -25 56
-53 86 -104 113 l-40 22 -1020 2 c-561 1 -1031 -2 -1045 -6z"/>
<path d="M7907 6476 c-96 -35 -150 -113 -149 -219 0 -104 41 -174 126 -213
l51 -24 3053 0 c2718 0 3057 2 3089 15 134 56 190 198 127 323 -29 59 -70 94
-133 117 -39 13 -389 15 -3085 15 -2514 -1 -3047 -3 -3079 -14z"/>
<path d="M5110 4729 c-54 -24 -83 -50 -118 -104 -35 -53 -37 -149 -4 -211 27
-53 90 -107 141 -122 55 -17 5367 -17 5422 -1 51 16 105 62 131 112 48 93 20
234 -58 293 -74 57 107 53 -2789 53 -2676 1 -2680 1 -2725 -20z"/>
<path d="M11249 4736 c-82 -29 -129 -83 -149 -170 -24 -107 33 -223 130 -265
49 -21 49 -21 1430 -21 1508 0 1409 -4 1488 57 46 35 82 114 82 181 0 68 -18
111 -70 160 -79 77 28 72 -1504 72 -1094 -1 -1378 -3 -1407 -14z"/>
</g>
</svg>
